<svg width="70" height="42" viewBox="0 0 70 42" fill="none" xmlns="http://www.w3.org/2000/svg">
<g clip-path="url(#clip0)">
<path d="M47.9819 10.1818V0.381805H42.7637V10.1818C42.7637 15.1454 45.1819 17.4363 50.1455 17.4363H58.0364V0.381805H52.8182V12.8545H50.5273C48.8728 12.8545 47.9819 12.3454 47.9819 10.1818Z" fill="#0078DC"/>
<path d="M28.6363 26.3455V36.1455H33.8545V26.3455C33.8545 21.3818 31.4363 19.0909 26.4727 19.0909H18.5818V36.1455H23.8V23.6727H26.0909C27.7454 23.6727 28.6363 24.3091 28.6363 26.3455Z" fill="#0078DC"/>
<path d="M35.6364 6.4909H30.6728V0.381805H25.4546V17.4363H30.8V10.9454H35.6364V17.4363H40.9819V0.381805H35.6364V6.4909Z" fill="#0078DC"/>
<path d="M61.4727 18.7091C55.6182 18.7091 52.9454 22.5273 52.9454 27.6182C52.9454 32.8364 55.6182 36.5273 61.4727 36.5273C67.3273 36.5273 70 32.7091 70 27.6182C70 22.5273 67.3273 18.7091 61.4727 18.7091ZM61.4727 32.3273C59.0545 32.3273 58.2909 30.4182 58.2909 27.7455C58.2909 25.0727 59.1818 23.1637 61.4727 23.1637C63.8909 23.1637 64.6545 25.0727 64.6545 27.7455C64.6545 30.2909 63.8909 32.3273 61.4727 32.3273Z" fill="#0078DC"/>
<path d="M15.5273 0C10.6909 0 8.14545 2.67273 7.50909 6.49091H5.34545V0.381818H0V17.5636H5.34545V10.9455H7.50909C8.14545 15.0182 10.6909 17.8182 15.6545 17.8182C21.5091 17.8182 24.1818 14 24.1818 8.90909C24.0545 3.81818 21.3818 0 15.5273 0ZM15.5273 13.6182C13.1091 13.6182 12.3455 11.7091 12.3455 9.03636C12.3455 6.36364 13.1091 4.45455 15.5273 4.45455C17.9455 4.45455 18.7091 6.36364 18.7091 9.03636C18.7091 11.5818 17.9455 13.4909 15.5273 13.6182Z" fill="#0078DC"/>
<path d="M40.9818 36.2727H43.0182C48.7454 36.2727 51.9273 33.4727 51.9273 27.7455C51.9273 22.0182 48.7454 19.2182 43.0182 19.2182H35.6364V42.1273H40.8545V36.2727H40.9818ZM40.9818 31.5637V23.6727H42.7636C45.1818 23.6727 46.5818 24.5637 46.5818 27.6182C46.5818 30.5455 45.1818 31.5637 42.7636 31.5637H40.9818Z" fill="#0078DC"/>
</g>
<defs>
<clipPath id="clip0">
<rect width="70" height="42" fill="white"/>
</clipPath>
</defs>
</svg>
